<svg width="110" height="110" viewBox="0 0 110 110" fill="none" xmlns="http://www.w3.org/2000/svg">
<path d="M75 59H73C73 51.26 66.74 45 59 45H57V42.4599C57.6082 42.1088 58.1133 41.6037 58.4644 40.9954C58.8154 40.3871 59.0002 39.6971 59 38.9948C58.9998 38.2925 58.8147 37.6026 58.4633 36.9945C58.1119 36.3864 57.6066 35.8816 56.9982 35.5307C56.3898 35.1799 55.6998 34.9954 54.9974 34.9959C54.2951 34.9963 53.6053 35.1817 52.9973 35.5333C52.3894 35.8849 51.8847 36.3904 51.5341 36.999C51.1835 37.6075 50.9993 38.2976 51 38.9999C51 40.4799 51.8 41.78 53 42.4599V45H51C43.26 45 37 51.26 37 59H35C33.9 59 33 59.9 33 61V67C33 68.0999 33.9 69 35 69H37V71C37 72.0608 37.4214 73.0782 38.1716 73.8284C38.9217 74.5785 39.9391 75 41 75H69C71.22 75 73 73.22 73 71V69H75C76.1 69 77 68.0999 77 67V61C77 59.9 76.1 59 75 59ZM48.36 65.08L46 62.7199L43.64 65.08L41.28 62.7199L46 58L50.72 62.7199L48.36 65.08ZM66.36 65.08L64 62.7199L61.64 65.08L59.28 62.7199L64 58L68.72 62.7199L66.36 65.08Z" fill="#2D3748"/>
</svg>
