<svg width="24" height="24" viewBox="0 0 24 24" fill="none" xmlns="http://www.w3.org/2000/svg">
<path d="M19.9417 5.20515C19.9417 5.20515 21.7001 4.7595 21.3625 6.33031C21.235 6.97861 20.5314 9.21585 19.8974 11.6511L17.868 18.8469C17.868 18.8469 17.6412 19.9098 16.7792 19.9925C15.9177 20.0749 14.7641 19.078 14.5542 18.8621C14.3852 18.6987 11.3386 16.1853 10.3016 15.0131C10.0101 14.692 9.70669 14.0853 10.5339 13.5239L16.0061 9.45976C16.6347 8.96887 17.3563 7.73026 14.8295 9.02908L7.75504 12.6565C7.75504 12.6565 6.9514 13.0314 5.60621 12.4373L2.69349 11.1264C2.69349 11.1264 1.66243 10.2868 3.65978 9.82349C8.59197 8.20675 14.6014 6.67651 19.9408 5.20505L19.9417 5.20515Z" fill="#212429"/>
</svg>
