<svg width="110" height="110" viewBox="0 0 110 110" fill="none" xmlns="http://www.w3.org/2000/svg">
<path d="M55.0001 75.2381C43.8226 75.2381 34.762 66.1775 34.762 55C34.762 43.8225 43.8226 34.7619 55.0001 34.7619C66.1776 34.7619 75.2382 43.8225 75.2382 55C75.2382 66.1775 66.1776 75.2381 55.0001 75.2381ZM47.9167 59.0476V63.0952H52.9762V67.1429H57.0239V63.0952H59.0477C60.3895 63.0952 61.6765 62.5622 62.6253 61.6133C63.5741 60.6645 64.1072 59.3776 64.1072 58.0357C64.1072 56.6938 63.5741 55.4069 62.6253 54.4581C61.6765 53.5092 60.3895 52.9762 59.0477 52.9762H50.9524C50.6841 52.9762 50.4267 52.8696 50.2369 52.6798C50.0471 52.49 49.9405 52.2327 49.9405 51.9643C49.9405 51.6959 50.0471 51.4385 50.2369 51.2488C50.4267 51.059 50.6841 50.9524 50.9524 50.9524H62.0834V46.9048H57.0239V42.8571H52.9762V46.9048H50.9524C49.6106 46.9048 48.3237 47.4378 47.3748 48.3867C46.426 49.3355 45.8929 50.6224 45.8929 51.9643C45.8929 53.3062 46.426 54.5931 47.3748 55.5419C48.3237 56.4907 49.6106 57.0238 50.9524 57.0238H59.0477C59.316 57.0238 59.5734 57.1304 59.7632 57.3202C59.953 57.51 60.0596 57.7673 60.0596 58.0357C60.0596 58.3041 59.953 58.5615 59.7632 58.7512C59.5734 58.941 59.316 59.0476 59.0477 59.0476H47.9167Z" fill="#2D3748"/>
</svg>
