<?xml version="1.0" encoding="UTF-8" standalone="no"?>
<svg
   xmlns:dc="http://purl.org/dc/elements/1.1/"
   xmlns:cc="http://creativecommons.org/ns#"
   xmlns:rdf="http://www.w3.org/1999/02/22-rdf-syntax-ns#"
   xmlns:svg="http://www.w3.org/2000/svg"
   xmlns="http://www.w3.org/2000/svg"
   xmlns:sodipodi="http://sodipodi.sourceforge.net/DTD/sodipodi-0.dtd"
   xmlns:inkscape="http://www.inkscape.org/namespaces/inkscape"
   version="1.1"
   id="svg2"
   width="672"
   height="388.79999"
   viewBox="0 0 672 388.79999"
   sodipodi:docname="projectImagesvg.svg"
   inkscape:export-filename="C:\Users\salemkode\Projects\salemkode.github.io\src\static\media_upload\slp.png"
   inkscape:export-xdpi="96"
   inkscape:export-ydpi="96"
   inkscape:version="1.0.1 (3bc2e813f5, 2020-09-07)">
  <metadata
     id="metadata8">
    <rdf:RDF>
      <cc:Work
         rdf:about="">
        <dc:format>image/svg+xml</dc:format>
        <dc:type
           rdf:resource="http://purl.org/dc/dcmitype/StillImage" />
        <dc:title></dc:title>
      </cc:Work>
    </rdf:RDF>
  </metadata>
  <defs
     id="defs6">
    <inkscape:path-effect
       effect="fillet_chamfer"
       id="path-effect11863"
       is_visible="true"
       lpeversion="1"
       satellites_param="F,0,0,1,0,0,0,1 @ F,0,0,1,0,0,0,1 @ F,0,0,1,0,31.162396,0,1 @ F,0,1,1,0,31.162396,0,1"
       unit="px"
       method="auto"
       mode="F"
       radius="0"
       chamfer_steps="1"
       flexible="false"
       use_knot_distance="true"
       apply_no_radius="true"
       apply_with_radius="true"
       only_selected="false"
       hide_knots="false" />
    <clipPath
       clipPathUnits="userSpaceOnUse"
       id="clipPath1114">
      <g
         id="g1120"
         transform="translate(258.19,112.61899)">
        <g
           id="g1118">
          <rect
             style="fill:#ffffff;fill-rule:evenodd;stroke-width:1.00122"
             id="rect1116"
             width="672"
             height="388.79999"
             x="2.1900029"
             y="0"
             inkscape:export-filename="C:\Users\salemkode\Projects\salemkode.github.io\src\static\media_upload\slp.png"
             inkscape:export-xdpi="96"
             inkscape:export-ydpi="96"
             transform="translate(-258.19,-112.61899)" />
        </g>
      </g>
    </clipPath>
  </defs>
  <sodipodi:namedview
     pagecolor="#ffffff"
     bordercolor="#666666"
     borderopacity="1"
     objecttolerance="10"
     gridtolerance="10"
     guidetolerance="10"
     inkscape:pageopacity="0"
     inkscape:pageshadow="2"
     inkscape:window-width="1920"
     inkscape:window-height="991"
     id="namedview4"
     showgrid="false"
     inkscape:zoom="0.91294644"
     inkscape:cx="90.28579"
     inkscape:cy="219.99527"
     inkscape:window-x="-9"
     inkscape:window-y="-9"
     inkscape:window-maximized="1"
     inkscape:current-layer="g1346"
     inkscape:document-rotation="0"
     showguides="true"
     inkscape:guide-bbox="true">
    <sodipodi:guide
       position="232.35978,193.61777"
       orientation="0,-1"
       id="guide897" />
    <sodipodi:guide
       position="-1.0953545,60.193635"
       orientation="1,0"
       id="guide899" />
    <sodipodi:guide
       position="674.73838,-32.911499"
       orientation="1,0"
       id="guide901" />
  </sodipodi:namedview>
  <g
     inkscape:groupmode="layer"
     inkscape:label="Image"
     id="g10">
    <g
       inkscape:groupmode="layer"
       id="layer1"
       inkscape:label="Layer 1">
      <g
         id="g1346">
        <rect
           style="opacity:1;fill:#ffffff;fill-opacity:1;stroke:none;stroke-width:2.72071"
           id="rect907"
           width="672"
           height="388.79999"
           x="2.7383606"
           y="1.0953532" />
        <path
           id="circle893-0"
           style="opacity:0.07;fill:#5ebd6d;fill-opacity:1;stroke:none;stroke-width:2.02386;stroke-miterlimit:4;stroke-dasharray:none;stroke-opacity:1"
           d="m 37.584643,208.38216 a 39.903143,39.903143 0 0 0 -23.39108,-51.35541 39.903143,39.903143 0 0 0 -51.35543,23.3911 39.903143,39.903143 0 0 0 23.39113,51.35541 39.903143,39.903143 0 0 0 51.35538,-23.3911 z" />
        <circle
           style="opacity:1;fill:none;fill-opacity:0.737255;stroke:#5ebd6d;stroke-width:2.48129;stroke-opacity:1"
           id="path893"
           cx="-0.3861618"
           cy="339.94601"
           r="144.04849"
           transform="scale(-1,1)" />
        <path
           id="path903"
           style="opacity:0.07;fill:#5ebd6d;fill-opacity:1;stroke:none;stroke-width:2.02386;stroke-miterlimit:4;stroke-dasharray:none;stroke-opacity:1"
           d="m 711.36948,180.32296 a 39.903143,39.903143 0 0 1 -23.39108,51.35541 39.903143,39.903143 0 0 1 -51.35543,-23.3911 39.903143,39.903143 0 0 1 23.39113,-51.35541 39.903143,39.903143 0 0 1 51.35538,23.3911 z" />
        <circle
           style="opacity:1;fill:none;fill-opacity:0.737255;stroke:#5ebd6d;stroke-width:2.48129;stroke-opacity:1"
           id="circle905"
           cx="-674.17096"
           cy="-50.759087"
           r="144.04849"
           transform="scale(-1)" />
        <g
           id="g965"
           transform="matrix(0.9999875,0,0,0.9999875,29.810272,104.57048)">
          <g
             id="g972"
             transform="translate(228.93195,9.1449995)">
            <g
               id="g945">
	<path
   fill="#5ebd6d"
   d="M 79.999,161.782 C 35.886,161.782 0,125.894 0,81.781 0,37.668 35.886,1.78 79.999,1.78 124.112,1.78 160,37.667 160,81.781 c 0,44.114 -35.888,80.001 -80.001,80.001 z m 0,-149.5 c -38.321,0 -69.497,31.177 -69.497,69.499 0,38.322 31.176,69.499 69.497,69.499 38.322,0 69.499,-31.177 69.499,-69.499 0,-38.322 -31.177,-69.499 -69.499,-69.499 z"
   id="path943" />

</g>
            <g
               id="g951">
	<path
   fill="#5ebd6d"
   d="m 63.5,99.159 c 2.295,-0.98 4.257,-2.593 5.661,-4.665 1.45,-2.136 2.213,-4.625 2.213,-7.207 v -1.389 c 0,-1.71 -0.353,-3.445 -1.023,-5.015 C 69.375,78.585 67.76,76.627 65.69,75.222 63.554,73.775 61.068,73.01 58.495,73.01 h -20.6 c -0.506,0 -0.976,-0.095 -1.438,-0.289 -0.663,-0.281 -1.258,-0.769 -1.666,-1.377 -0.421,-0.631 -0.634,-1.325 -0.641,-2.07 v -1.393 c 0.005,-0.512 0.101,-0.979 0.294,-1.437 0.281,-0.666 0.768,-1.258 1.375,-1.668 0.631,-0.419 1.326,-0.635 2.071,-0.637 H 69.106 V 54.991 H 37.895 c -1.719,0 -3.446,0.354 -5.019,1.021 -2.297,0.979 -4.255,2.591 -5.659,4.664 -1.452,2.134 -2.215,4.626 -2.21,7.205 v 1.387 c 0,1.712 0.351,3.448 1.017,5.015 0.978,2.301 2.594,4.259 4.667,5.664 2.131,1.447 4.617,2.212 7.189,2.212 h 20.601 c 0.506,10e-4 0.975,0.096 1.438,0.29 0.663,0.279 1.258,0.769 1.666,1.376 0.426,0.632 0.638,1.326 0.638,2.073 v 1.389 c 0,0.508 -0.094,0.977 -0.292,1.438 -0.278,0.666 -0.769,1.258 -1.374,1.668 -0.634,0.419 -1.324,0.633 -2.072,0.638 H 20.159 v 9.144 h 38.327 c 1.737,0 3.42,-0.342 5.014,-1.016 z"
   id="path947" />

	<path
   fill="#5ebd6d"
   d="M 102.409,130.746 H 93.26 v -30.57 h -5.428 c -2.575,0 -5.064,-0.762 -7.196,-2.208 C 78.562,96.562 76.947,94.606 75.973,92.304 75.301,90.736 74.952,89 74.952,87.288 V 32.815 h 9.146 v 54.474 c 0,0.746 0.215,1.44 0.638,2.072 0.41,0.608 0.999,1.099 1.664,1.376 0.46,0.196 0.934,0.292 1.44,0.294 h 5.419 V 77.217 c 0,-2.58 0.761,-5.072 2.211,-7.205 1.404,-2.072 3.364,-3.687 5.661,-4.665 1.591,-0.678 3.277,-1.021 5.019,-1.021 h 20.813 c 2.575,0 5.063,0.766 7.192,2.211 2.075,1.406 3.693,3.363 4.667,5.662 0.666,1.571 1.017,3.306 1.017,5.018 v 10.07 c 0.005,2.582 -0.757,5.073 -2.21,7.207 -1.404,2.072 -3.364,3.685 -5.657,4.665 -1.596,0.674 -3.277,1.017 -5.019,1.017 h -22.065 v -9.144 h 22.065 c 0.748,-0.005 1.445,-0.218 2.074,-0.638 0.607,-0.411 1.094,-1.003 1.376,-1.668 0.197,-0.466 0.287,-0.933 0.292,-1.438 V 77.211 c -0.005,-0.741 -0.219,-1.435 -0.638,-2.071 -0.412,-0.606 -1.003,-1.096 -1.668,-1.376 -0.461,-0.194 -0.93,-0.288 -1.437,-0.289 H 106.14 c -0.739,0.002 -1.437,0.216 -2.065,0.637 -0.606,0.408 -1.099,1 -1.381,1.669 -0.191,0.461 -0.287,0.931 -0.287,1.436 v 53.529 z"
   id="path949" />

</g>
          </g>
        </g>
      </g>
    </g>
    <g
       aria-label="AXAX"
       id="text1288"
       style="font-style:normal;font-weight:normal;font-size:40px;line-height:1.25;font-family:sans-serif;fill:#000000;fill-opacity:1;stroke:none" />
  </g>
</svg>
