<svg width="24" height="24" viewBox="0 0 24 24" fill="none" xmlns="http://www.w3.org/2000/svg">
<path d="M19.037 6.53054C18.9666 6.43304 18.8914 6.33943 18.8116 6.2501C18.8918 6.02706 18.9528 5.79696 18.9937 5.56257C19.1145 4.70515 19.0096 3.82959 18.6902 3.02956C18.6902 3.02956 17.7191 2.71294 15.4906 4.27798C14.5446 4.00544 13.5674 3.86849 12.5859 3.87088C11.6016 3.86908 10.6216 4.00602 9.67249 4.27798C7.44408 2.69484 6.47294 3.02956 6.47294 3.02956C6.15739 3.82111 6.05254 4.68687 6.16946 5.53543C6.2106 5.77957 6.27449 6.01893 6.36022 6.2501C6.28218 6.34057 6.20414 6.44008 6.13478 6.53054C5.48774 7.37731 5.14428 8.43314 5.16364 9.51588C5.16158 9.77267 5.17316 10.0294 5.19832 10.2848C5.47579 14.2924 8.0337 15.2242 10.4702 15.5137C10.1254 15.8483 9.89152 16.2887 9.80255 16.7711C9.72196 17.0929 9.68404 17.4247 9.68983 17.7572V18.9423C8.71956 19.0328 7.72415 18.8853 7.41546 17.9825C7.08411 17.1183 6.53457 16.364 5.82523 15.7996C5.77338 15.7703 5.72406 15.7364 5.67782 15.6982C5.61553 15.5274 5.50518 15.3803 5.36125 15.2762C5.21733 15.172 5.04658 15.1158 4.87143 15.1147H4.86709C4.63788 15.1147 4.41799 15.2094 4.2555 15.3781C4.09301 15.5468 4.00115 15.7757 4.00001 16.0149C3.99741 16.7494 4.70235 17.2244 4.99109 17.3854C5.32843 17.74 5.5998 18.1569 5.79141 18.6148C6.10703 19.5403 7.03048 20.947 9.66382 20.7643L9.66555 20.8529L9.66902 21.0954C9.66902 21.3353 9.76038 21.5654 9.92299 21.735C10.0856 21.9047 10.3061 22 10.5361 22H14.6236C14.8535 22 15.0741 21.9047 15.2367 21.735C15.3993 21.5654 15.4906 21.3353 15.4906 21.0954C15.4906 21.0954 15.4976 18.2367 15.4976 17.7572C15.5034 17.4247 15.4654 17.0929 15.3849 16.7711L15.3831 16.7657L15.3866 16.7711C15.3788 16.7395 15.3675 16.7142 15.3588 16.6834C15.2622 16.2352 15.0387 15.8276 14.7172 15.5137L14.7276 15.5327L14.7103 15.5146C17.1468 15.2251 19.6873 14.2752 19.9648 10.2857C19.99 10.0303 20.0016 9.77357 19.9995 9.51678C20.0149 8.43619 19.6752 7.38177 19.037 6.53054Z" fill="#212429"/>
</svg>
