<svg width="21" height="21" viewBox="0 0 21 21" fill="none" xmlns="http://www.w3.org/2000/svg">
<path d="M4.8538 17.0769L0.261719 20.6846V1.61541C0.261719 1.34203 0.370317 1.07985 0.563624 0.886546C0.756931 0.693239 1.01911 0.584641 1.29249 0.584641H19.8463C20.1197 0.584641 20.3819 0.693239 20.5752 0.886546C20.7685 1.07985 20.8771 1.34203 20.8771 1.61541V16.0462C20.8771 16.3196 20.7685 16.5817 20.5752 16.775C20.3819 16.9683 20.1197 17.0769 19.8463 17.0769H4.8538ZM2.32326 16.443L4.1405 15.0154H18.8156V2.64618H2.32326V16.443ZM10.5694 7.80002V4.70772L14.6925 8.83079L10.5694 12.9539V9.86156H6.44633V7.80002H10.5694Z" fill="white"/>
</svg>
