<svg xmlns="http://www.w3.org/2000/svg" version="1.1" xmlns:xlink="http://www.w3.org/1999/xlink" xmlns:svgjs="http://svgjs.com/svgjs" width="512" height="512" x="0" y="0" viewBox="0 0 512 512" style="enable-background:new 0 0 512 512" xml:space="preserve" class=""><g transform="matrix(1,0,0,1,0,0)"><g xmlns="http://www.w3.org/2000/svg"><g><g><path clip-rule="evenodd" d="m282.141 66.089c-118.264-29.728-238.201 42.124-267.901 160.497-4.534 18.041-6.688 36.11-6.717 53.896v.142c.028 37.415 9.607 73.554 26.923 105.409l-9.211 46.861c-6.915 29.983 14.482 40.989 37.608 38.38l45.996-4.992c19.697 12.68 41.774 22.409 65.75 28.451 118.264 29.728 238.201-42.152 267.901-160.497 16.324-65.101 1.955-130.684-33.923-181.488-5.13-6.978-48.745-54.946-74.563-66.434-16.012-8.736-33.385-15.573-51.863-20.225z" fill="#60b7ff" fill-rule="evenodd" data-original="#60b7ff" style="" class=""></path></g><g><path clip-rule="evenodd" d="m353.615 153.685c35.879 50.832 50.247 116.415 33.923 181.516-22.474 89.581-96.669 152.554-182.71 164.95 107.835 11.715 210.484-57.669 237.662-165.915 16.324-65.101 1.955-130.684-33.923-181.488l-17.373 12.226c-6.065 4-16.749 1.815-16.749-10.496v-16.878h-19.583c-11.478 0-20.859-9.389-20.859-20.878v-30.407c-16.012-8.737-33.385-15.573-51.863-20.225-28.737-7.233-57.588-8.453-85.191-4.482 10.032 1.106 20.15 2.893 30.239 5.446 18.478 4.624 35.851 11.488 51.863 20.197 25.819 11.516 69.435 59.484 74.564 66.434z" fill="#22a6fe" fill-rule="evenodd" data-original="#22a6fe" style="" class=""></path></g><g><path clip-rule="evenodd" d="m334.004 86.315v30.409c0 11.488 9.381 20.878 20.859 20.878h19.583v16.878c0 12.311 10.684 14.495 16.749 10.496l17.373-12.226 21.482-15.148h53.507c11.478 0 20.887-9.389 20.887-20.878v-85.327c0-11.488-9.409-20.878-20.887-20.878h-128.695c-11.478 0-20.859 9.389-20.859 20.878v54.918z" fill="#eee1dc" fill-rule="evenodd" data-original="#eee1dc" style="" class=""></path></g><g><path clip-rule="evenodd" d="m472.957 31.397v85.326c0 11.488-9.381 20.878-20.858 20.878h31.458c11.478 0 20.887-9.389 20.887-20.878v-85.326c0-11.488-9.409-20.878-20.887-20.878h-31.458c11.477.001 20.858 9.39 20.858 20.878z" fill="#cdbeb9" fill-rule="evenodd" data-original="#cdbeb9" style="" class=""></path></g><g><path clip-rule="evenodd" d="m170.593 410.088c-7.992 0-14.539 6.524-14.539 14.524 0 8.028 6.547 14.552 14.539 14.552h19.271c7.992 0 14.539-6.524 14.539-14.524 0-8.028-6.547-14.552-14.539-14.552z" fill="#9d9696" fill-rule="evenodd" data-original="#9d9696" style=""></path></g><g><path clip-rule="evenodd" d="m279.534 121.858c-12.073 0-21.879 9.815-21.879 21.899s9.806 21.899 21.879 21.899 21.879-9.815 21.879-21.899c-.001-12.085-9.806-21.899-21.879-21.899z" fill="#fd8087" fill-rule="evenodd" data-original="#fd8087" style=""></path></g><g><path clip-rule="evenodd" d="m186.294 121.858c-12.101 0-21.879 9.815-21.879 21.899s9.777 21.899 21.879 21.899c12.073 0 21.879-9.815 21.879-21.899 0-12.085-9.806-21.899-21.879-21.899z" fill="#fd8087" fill-rule="evenodd" data-original="#fd8087" style=""></path></g><g><path clip-rule="evenodd" d="m186.294 121.858c-3.514 0-6.83.823-9.777 2.298 7.17 3.603 12.101 11.034 12.101 19.601 0 8.595-4.931 15.999-12.101 19.601 2.947 1.475 6.263 2.298 9.777 2.298 12.073 0 21.879-9.815 21.879-21.899 0-12.085-9.806-21.899-21.879-21.899z" fill="#fd4755" fill-rule="evenodd" data-original="#fd4755" style=""></path></g><g><path clip-rule="evenodd" d="m269.756 124.155c7.198 3.603 12.13 11.034 12.13 19.601 0 8.595-4.931 15.999-12.13 19.601 2.947 1.475 6.263 2.298 9.777 2.298 12.073 0 21.879-9.815 21.879-21.899s-9.806-21.899-21.879-21.899c-3.514.001-6.829.823-9.777 2.298z" fill="#fd4755" fill-rule="evenodd" data-original="#fd4755" style=""></path></g><g><path clip-rule="evenodd" d="m189.865 410.088h-15.672c7.992 0 14.51 6.524 14.51 14.552 0 7.999-6.518 14.524-14.51 14.524h15.672c7.992 0 14.539-6.524 14.539-14.524-.001-8.028-6.547-14.552-14.539-14.552z" fill="#746e6e" fill-rule="evenodd" data-original="#746e6e" style=""></path></g><g><path clip-rule="evenodd" d="m324.737 254.243-16.494 36.564 16.494 35.004c4.251 1.957 8.899 3.177 13.83 3.517 21.68 1.475 40.47-14.921 41.944-36.649 1.445-21.7-14.935-40.479-36.616-41.954-6.83-.453-13.349.852-19.158 3.518z" fill="#fdb440" fill-rule="evenodd" data-original="#fdb440" style="" class=""></path></g><g><path clip-rule="evenodd" d="m329.441 252.428c16.948 5.333 28.709 21.729 27.462 40.252-1.134 16.679-12.441 30.21-27.462 34.947 2.891.908 5.951 1.503 9.126 1.702 21.68 1.475 40.47-14.921 41.944-36.649 1.445-21.7-14.935-40.479-36.616-41.954-5.045-.34-9.92.284-14.454 1.702z" fill="#fe9737" fill-rule="evenodd" data-original="#fe9737" style="" class=""></path></g><g><path clip-rule="evenodd" d="m76.22 292.68c1.105 16.339 12.016 29.671 26.583 34.635 4.79 1.645 9.976 2.383 15.36 2.014 4.931-.34 9.579-1.56 13.802-3.517l16.126-36.507-16.126-35.061c-5.781-2.666-12.3-3.971-19.13-3.517-21.68 1.474-38.089 20.252-36.615 41.953z" fill="#fdb440" fill-rule="evenodd" data-original="#fdb440" style="" class=""></path></g><g><path clip-rule="evenodd" d="m112.836 250.726c-15.899 1.078-28.964 11.46-34.207 25.501 11.903-8.425 31.344-8.482 31.344 11.942v40.876c2.664.369 5.385.482 8.19.284 4.931-.34 9.579-1.56 13.802-3.517v-71.568c-5.781-2.667-12.299-3.972-19.129-3.518z" fill="#fe9737" fill-rule="evenodd" data-original="#fe9737" style="" class=""></path></g><g><path clip-rule="evenodd" d="m131.966 325.812v9.162c0 23.828 19.498 43.315 43.304 43.315h106.191c23.806 0 43.276-19.488 43.276-43.315v-9.162-71.568-9.134c0-23.856-19.47-43.344-43.276-43.344h-1.927-93.24-11.024c-23.806 0-43.304 19.488-43.304 43.344v9.134z" fill="#eee1dc" fill-rule="evenodd" data-original="#eee1dc" style="" class=""></path></g><g><path clip-rule="evenodd" d="m243.456 201.766c23.806 0 43.276 19.488 43.276 43.344v16.282 73.582c0 23.828-19.47 43.315-43.276 43.315h38.004c23.806 0 43.276-19.488 43.276-43.315v-9.162-71.568-9.134c0-23.856-19.47-43.344-43.276-43.344h-1.927z" fill="#cdbeb9" fill-rule="evenodd" data-original="#cdbeb9" style="" class=""></path></g></g><g><path d="m483.555 2.962h-67.705c-4.174 0-7.557 3.383-7.557 7.557s3.383 7.557 7.557 7.557h67.705c7.35 0 13.33 5.976 13.33 13.32v85.326c0 7.345-5.979 13.32-13.33 13.32h-53.506c-1.558 0-3.079.481-4.353 1.379l-38.731 27.287c-.987.611-2.45.709-3.372.214-1.385-.746-1.592-3.104-1.592-4.444v-16.878c0-4.174-3.383-7.557-7.557-7.557h-19.583c-7.334 0-13.302-5.976-13.302-13.32v-30.353c0-.024 0-.047 0-.071v-54.902c0-7.345 5.968-13.32 13.302-13.32h26.356c4.174 0 7.557-3.383 7.557-7.557s-3.383-7.557-7.557-7.557h-26.356c-15.669 0-28.416 12.756-28.416 28.435v42.611c-13.51-6.415-27.736-11.542-42.462-15.249-47.952-12.063-97.377-8.439-142.929 10.476-3.856 1.601-5.683 6.023-4.082 9.878s6.025 5.683 9.878 4.082c42.527-17.661 88.673-21.041 133.444-9.778 16.144 4.064 31.64 9.946 46.151 17.465v25.84c0 15.679 12.747 28.435 28.416 28.435h12.025v9.321c0 8.017 3.478 14.488 9.541 17.753 2.645 1.424 5.611 2.128 8.59 2.128 3.612 0 7.242-1.035 10.336-3.077.064-.042.128-.086.191-.13l11.074-7.802c32.66 49.869 43.084 111.038 28.539 169.046-13.874 55.283-48.427 101.853-97.293 131.131-48.869 29.281-106.2 37.76-161.431 23.876-22.702-5.721-44.069-14.965-63.505-27.477-1.456-.937-3.191-1.346-4.906-1.159l-46.029 4.995c-11.331 1.283-21.099-1.315-26.118-6.942-4.43-4.968-5.533-12.447-3.278-22.229.019-.079.036-.16.052-.24l9.21-46.862c.34-1.728.065-3.52-.775-5.067-25.659-47.207-32.589-101.898-19.516-154 13.589-54.219 47.26-100.258 94.812-129.637 3.551-2.194 4.652-6.851 2.458-10.402-2.194-3.552-6.852-4.652-10.402-2.458-50.919 31.462-86.976 80.764-101.527 138.821-13.775 54.899-6.806 112.486 19.601 162.476l-8.668 44.097c-4.208 18.407 1.345 29.496 6.754 35.562 8.401 9.419 22.652 13.761 39.062 11.905l43.364-4.706c20.208 12.671 42.304 22.079 65.725 27.982 18.568 4.667 37.352 6.975 56.014 6.974 40.787-.001 80.967-11.028 116.874-32.543 52.328-31.352 89.329-81.221 104.186-140.42 15.616-62.281 4.356-127.964-30.835-181.436l13.458-9.481h51.111c15.685 0 28.445-12.756 28.445-28.435v-85.325c0-15.679-12.76-28.435-28.445-28.435z" fill="#000000" data-original="#000000" style="" class=""></path><path d="m385.668 88.062c-4.174 0-7.557 3.383-7.557 7.557s3.383 7.557 7.557 7.557h72.75c4.174 0 7.557-3.383 7.557-7.557s-3.383-7.557-7.557-7.557z" fill="#000000" data-original="#000000" style="" class=""></path><path d="m457.369 48.32h-72.75c-4.174 0-7.557 3.383-7.557 7.557s3.383 7.557 7.557 7.557h72.75c4.174 0 7.557-3.383 7.557-7.557s-3.383-7.557-7.557-7.557z" fill="#000000" data-original="#000000" style="" class=""></path><path d="m213.002 273.213c3.834-1.649 5.606-6.095 3.955-9.929-4.347-10.105-14.453-16.378-26.379-16.378-.008 0-.018 0-.025 0-11.92.01-22.012 6.289-26.339 16.389-1.643 3.836.134 8.279 3.971 9.923.971.416 1.979.612 2.972.612 2.933 0 5.723-1.717 6.951-4.583 2.28-5.321 7.929-7.221 12.456-7.225h.013c4.538 0 10.201 1.901 12.496 7.236 1.649 3.833 6.093 5.607 9.929 3.955z" fill="#000000" data-original="#000000" style="" class=""></path><path d="m253.983 315.55c-3.836-1.649-8.28.121-9.93 3.954-2.546 5.917-8.807 8.025-13.818 8.025-5.01 0-11.271-2.108-13.816-8.025-1.65-3.833-6.093-5.604-9.93-3.954-3.833 1.65-5.605 6.096-3.954 9.93 4.556 10.587 15.17 17.164 27.701 17.165h.001c12.529 0 23.145-6.578 27.702-17.165 1.649-3.834-.121-8.279-3.956-9.93z" fill="#000000" data-original="#000000" style="" class=""></path><path d="m175.269 194.209c-27.658 0-50.214 22.212-50.832 49.746-3.972-.769-8.049-1.04-12.114-.769-25.818 1.758-45.397 24.19-43.644 50.007.849 12.521 6.515 23.959 15.952 32.205 3.254 2.843 6.823 5.189 10.615 7.009v38.253c0 17.619 6.219 33.466 17.511 44.622 9.647 9.531 22.603 15.319 36.977 16.63 3.015 8.613 11.225 14.81 20.86 14.81h19.271c12.184 0 22.096-9.905 22.096-22.109 0-12.176-9.912-22.081-22.096-22.081h-19.271c-9.401 0-17.445 5.9-20.631 14.201-23.602-2.667-39.602-20.855-39.602-46.072v-33.962c1.675.181 3.365.283 5.069.283 1.081 0 2.167-.036 3.255-.11 1.947-.134 3.864-.394 5.752-.759.609 27.527 23.168 49.736 50.832 49.736h106.192c27.651 0 50.199-22.212 50.804-49.742 1.902.368 3.831.63 5.788.765 1.087.073 2.17.11 3.249.11 11.335 0 22.161-4.051 30.784-11.583 9.445-8.249 15.115-19.686 15.964-32.215 1.719-25.813-17.859-48.242-43.656-49.997-4.063-.271-8.146.003-12.131.776-.572-25.64-20.159-46.659-45.174-49.433v-22.304c12.58-3.348 21.878-14.84 21.878-28.468 0-16.242-13.205-29.456-29.436-29.456-16.232 0-29.437 13.214-29.437 29.456 0 13.629 9.298 25.121 21.879 28.469v21.984h-78.125v-21.984c12.58-3.348 21.878-14.84 21.878-28.468 0-16.242-13.205-29.456-29.436-29.456s-29.436 13.214-29.436 29.456c0 13.628 9.298 25.121 21.878 28.468v21.984h-3.463zm-4.676 223.436h19.271c3.849 0 6.981 3.125 6.981 6.995 0 3.84-3.132 6.966-6.981 6.966h-19.271c-3.849 0-6.981-3.125-6.981-6.994 0-3.841 3.132-6.967 6.981-6.967zm1.38-273.889c0-7.908 6.425-14.341 14.321-14.341s14.321 6.434 14.321 14.341-6.425 14.342-14.321 14.342-14.321-6.434-14.321-14.342zm-54.322 178.033c-4.135.285-8.202-.233-12.026-1.481-.237-.096-.48-.178-.729-.25-3.743-1.324-7.241-3.353-10.319-6.043-6.398-5.592-10.24-13.349-10.816-21.846-1.188-17.503 12.085-32.711 29.576-33.902.709-.047 1.418-.07 2.126-.07 3.034 0 6.052.431 8.946 1.271v61.128c-2.18.633-4.44 1.033-6.758 1.193zm225.73-63.522c17.482 1.189 30.755 16.402 29.589 33.902-.576 8.493-4.421 16.25-10.825 21.845-6.401 5.589-14.599 8.347-23.057 7.776-2.326-.161-4.597-.563-6.794-1.202v-61.125c3.576-1.047 7.29-1.448 11.087-1.196zm-26.202-13.157v9.133 71.568 9.163c0 19.717-16.023 35.758-35.718 35.758h-106.192c-19.711 0-35.746-16.041-35.746-35.758v-9.163-71.568-9.133c0-19.732 16.035-35.786 35.746-35.786l106.564.009c19.524.201 35.346 16.169 35.346 35.777zm-51.967-101.354c0-7.908 6.425-14.341 14.322-14.341 7.896 0 14.321 6.434 14.321 14.341s-6.425 14.342-14.321 14.342c-7.897 0-14.322-6.434-14.322-14.342z" fill="#000000" data-original="#000000" style="" class=""></path><path d="m270.38 246.905c-11.928 0-22.037 6.276-26.383 16.378-1.65 3.834.121 8.28 3.955 9.929 3.832 1.649 8.28-.12 9.929-3.955 2.296-5.335 7.962-7.236 12.499-7.236s10.203 1.901 12.499 7.236c1.23 2.861 4.018 4.573 6.946 4.572.996 0 2.009-.198 2.983-.617 3.834-1.649 5.606-6.095 3.955-9.929-4.346-10.101-14.455-16.378-26.383-16.378z" fill="#000000" data-original="#000000" style="" class=""></path></g></g></g></svg>