<svg width="72" height="72" fill="none" xmlns="http://www.w3.org/2000/svg"><path d="M37.732 17.765c0-5.454-4.436-9.89-9.89-9.89-5.747 0-9.183 4.309-9.183 8.477h5.651c0-1.173 1.097-2.826 3.532-2.826a4.244 4.244 0 0 1 4.239 4.239c0 2.336-1.706 4.238-6.007 4.238H10.687v5.65h15.387c7.26 0 11.658-4.435 11.658-9.888Zm0 0c0-5.454-4.436-9.89-9.89-9.89-5.747 0-9.183 4.309-9.183 8.477h5.651c0-1.173 1.097-2.826 3.532-2.826a4.244 4.244 0 0 1 4.239 4.239c0 2.336-1.706 4.238-6.007 4.238H10.687v5.65h15.387c7.26 0 11.658-4.435 11.658-9.888Z" fill="url(#a)"/><path d="M50.269 54.236c0 5.453-4.436 9.889-9.89 9.889-5.747 0-9.183-4.309-9.183-8.477h5.651c0 1.173 1.097 2.826 3.532 2.826a4.244 4.244 0 0 0 4.239-4.238c0-2.337-2.15-4.239-6.007-4.239H21.537v-5.65h17.074c7.26 0 11.658 4.435 11.658 9.889Zm0 0c0 5.453-4.436 9.889-9.89 9.889-5.747 0-9.183-4.309-9.183-8.477h5.651c0 1.173 1.097 2.826 3.532 2.826a4.244 4.244 0 0 0 4.239-4.238c0-2.337-2.15-4.239-6.007-4.239H21.537v-5.65h17.074c7.26 0 11.658 4.435 11.658 9.889Z" fill="url(#b)"/><path d="M51.75 16.594c-6.233 0-10.63 4.74-10.63 10.973h5.005c0-3.098 2.25-5.348 5.625-5.348s5.063 2.25 5.063 5.348-2.192 5.651-8.157 5.651H10.688v5.651H49.5c8.833 0 12.938-5.677 12.938-11.302 0-6.233-4.22-10.973-10.688-10.973Z" fill="url(#c)"/><path d="M18.096 44.346h-7.409v5.699h7.409v-5.699Z" fill="url(#d)"/><defs><linearGradient id="a" x1="15.188" y1="12.656" x2="47.813" y2="64.125" gradientUnits="userSpaceOnUse"><stop offset=".078" stop-color="#54C8F1"/><stop offset=".573" stop-color="#41A2EF"/><stop offset="1" stop-color="#3386EE"/></linearGradient><linearGradient id="b" x1="15.188" y1="12.656" x2="47.813" y2="64.125" gradientUnits="userSpaceOnUse"><stop offset=".078" stop-color="#54C8F1"/><stop offset=".573" stop-color="#41A2EF"/><stop offset="1" stop-color="#3386EE"/></linearGradient><linearGradient id="c" x1="15.188" y1="12.656" x2="47.813" y2="64.125" gradientUnits="userSpaceOnUse"><stop offset=".078" stop-color="#54C8F1"/><stop offset=".573" stop-color="#41A2EF"/><stop offset="1" stop-color="#3386EE"/></linearGradient><linearGradient id="d" x1="15.188" y1="12.656" x2="47.813" y2="64.125" gradientUnits="userSpaceOnUse"><stop offset=".078" stop-color="#54C8F1"/><stop offset=".573" stop-color="#41A2EF"/><stop offset="1" stop-color="#3386EE"/></linearGradient></defs></svg>