<svg width="80" height="64" fill="none" xmlns="http://www.w3.org/2000/svg"><g clip-path="url(#a)"><path d="M8.825 8.364C8.675 4.013 12.051 0 16.615 0H63.39c4.564 0 7.942 4.013 7.79 8.364-.144 4.18.044 9.594 1.401 14.01C73.943 26.801 76.24 29.6 80 29.96v4.078c-3.76.36-6.057 3.16-7.419 7.588-1.357 4.415-1.545 9.83-1.4 14.01.15 4.35-3.227 8.363-7.791 8.363H16.616c-4.565 0-7.942-4.013-7.79-8.364.144-4.18-.044-9.594-1.402-14.01C6.063 37.199 3.761 34.4 0 34.04v-4.078c3.76-.36 6.063-3.16 7.424-7.588 1.358-4.415 1.546-9.83 1.401-14.01Z" fill="url(#b)"/><g filter="url(#c)"><path d="M41.735 49.013c7.39 0 11.843-3.633 11.843-9.624 0-4.53-3.177-7.809-7.895-8.328v-.188c3.466-.566 6.186-3.798 6.186-7.407 0-5.143-4.044-8.492-10.206-8.492H27.797v34.039h13.938ZM33.189 19.29h7.174c3.9 0 6.114 1.745 6.114 4.906 0 3.373-2.576 5.26-7.246 5.26H33.19V19.291Zm0 25.405V33.491h7.126c5.103 0 7.75 1.887 7.75 5.567s-2.575 5.638-7.438 5.638H33.19Z" fill="url(#d)"/><path d="M41.735 49.013c7.39 0 11.843-3.633 11.843-9.624 0-4.53-3.177-7.809-7.895-8.328v-.188c3.466-.566 6.186-3.798 6.186-7.407 0-5.143-4.044-8.492-10.206-8.492H27.797v34.039h13.938ZM33.189 19.29h7.174c3.9 0 6.114 1.745 6.114 4.906 0 3.373-2.576 5.26-7.246 5.26H33.19V19.291Zm0 25.405V33.491h7.126c5.103 0 7.75 1.887 7.75 5.567s-2.575 5.638-7.438 5.638H33.19Z" stroke="#fff"/></g></g><defs><linearGradient id="b" x1="11.887" y1="1.694" x2="82.005" y2="57.136" gradientUnits="userSpaceOnUse"><stop stop-color="#9013FE"/><stop offset="1" stop-color="#6610F2"/></linearGradient><linearGradient id="d" x1="30.236" y1="17.214" x2="45.952" y2="43.691" gradientUnits="userSpaceOnUse"><stop stop-color="#fff"/><stop offset="1" stop-color="#F1E5FC"/></linearGradient><clipPath id="a"><path fill="#fff" d="M0 0h80v64H0z"/></clipPath><filter id="c" x="11.297" y="2.474" width="58.781" height="67.039" filterUnits="userSpaceOnUse" color-interpolation-filters="sRGB"><feFlood flood-opacity="0" result="BackgroundImageFix"/><feColorMatrix in="SourceAlpha" values="0 0 0 0 0 0 0 0 0 0 0 0 0 0 0 0 0 0 127 0" result="hardAlpha"/><feOffset dy="4"/><feGaussianBlur stdDeviation="8"/><feColorMatrix values="0 0 0 0 0 0 0 0 0 0 0 0 0 0 0 0 0 0 0.15 0"/><feBlend in2="BackgroundImageFix" result="effect1_dropShadow_26:38"/><feBlend in="SourceGraphic" in2="effect1_dropShadow_26:38" result="shape"/></filter></defs></svg>