<svg width="121" height="74" fill="none" xmlns="http://www.w3.org/2000/svg"><path d="M60.545 45.805a2.13 2.13 0 0 0-1.056.258l-10.155 5.846a2.133 2.133 0 0 0-1.057 1.85V65.43c0 .758.4 1.47 1.057 1.848l2.652 1.526c1.288.634 1.763.624 2.35.624 1.907 0 2.997-1.154 2.997-3.16V54.747c0-.163-.142-.28-.302-.28h-1.272c-.163 0-.302.117-.302.28V66.27c0 .889-.929 1.783-2.436 1.032l-2.76-1.612c-.098-.053-.172-.147-.172-.258V53.758a.34.34 0 0 1 .172-.28l10.133-5.824a.3.3 0 0 1 .302 0l10.133 5.825a.343.343 0 0 1 .173.28V65.43a.324.324 0 0 1-.151.28l-10.155 5.825a.313.313 0 0 1-.302 0l-2.609-1.548a.272.272 0 0 0-.258 0c-.72.407-.856.454-1.531.688-.166.058-.42.148.086.43l3.407 1.999c.32.184.685.28 1.056.28.37.001.736-.095 1.056-.28l10.156-5.826a2.136 2.136 0 0 0 1.056-1.848V53.759c0-.759-.4-1.47-1.056-1.849L61.6 46.064a2.12 2.12 0 0 0-1.056-.259Z" fill="#83CD29"/><path d="M63.261 54.145c-2.891 0-4.613 1.227-4.613 3.268 0 2.213 1.709 2.821 4.484 3.095 3.32.324 3.579.81 3.579 1.462 0 1.13-.904 1.612-3.04 1.612-2.684 0-3.273-.668-3.47-2-.024-.142-.135-.257-.281-.257h-1.316a.308.308 0 0 0-.301.3c0 1.705.93 3.72 5.368 3.72 3.214 0 5.067-1.258 5.067-3.461 0-2.184-1.497-2.77-4.614-3.181-3.15-.416-3.45-.62-3.45-1.355 0-.607.255-1.419 2.587-1.419 2.084 0 2.854.448 3.17 1.85a.294.294 0 0 0 .28.235h1.316c.08 0 .159-.05.215-.107.055-.062.094-.131.086-.215-.204-2.412-1.817-3.547-5.067-3.547Z" fill="#83CD29"/><path d="M76.844 25.66c.057 0 .123.015.173.044l3.687 2.128c.1.057.173.164.173.279v4.256a.332.332 0 0 1-.173.28l-3.687 2.128a.327.327 0 0 1-.323 0l-3.687-2.128a.333.333 0 0 1-.172-.28v-4.256c0-.115.072-.221.172-.28l3.687-2.127a.286.286 0 0 1 .15-.043Zm32.168-9.242c-.224 0-.445.056-.646.172l-10.759 6.19c-.4.23-.648.657-.647 1.118V36.28c0 .465.263.887.669 1.118l10.672 6.061c.394.224.875.241 1.272.021l6.468-3.59a.652.652 0 0 0 .345-.558.637.637 0 0 0-.323-.559l-10.824-6.19a.696.696 0 0 1-.345-.581v-3.87c0-.23.144-.443.345-.558l3.364-1.935a.647.647 0 0 1 .647 0l3.363 1.935c.2.115.324.328.323.558v3.053c0 .23.123.444.324.559a.642.642 0 0 0 .646 0l6.447-3.74c.4-.23.647-.657.647-1.118V23.9a1.29 1.29 0 0 0-.647-1.119l-10.694-6.19a1.284 1.284 0 0 0-.647-.172Zm-96.675-.15a1.217 1.217 0 0 0-.582.15L.996 22.608c-.4.23-.648.657-.646 1.118L.37 40.343c0 .23.12.445.323.558.2.12.448.12.647 0l6.382-3.654c.404-.24.668-.656.668-1.118v-7.76c0-.463.245-.887.647-1.117l2.717-1.57c.196-.113.42-.173.647-.172.221 0 .45.056.646.172l2.717 1.57c.401.23.648.656.647 1.117v7.76c0 .462.267.881.668 1.118l6.382 3.654a.63.63 0 0 0 .647 0 .646.646 0 0 0 .323-.559l.021-16.616a1.278 1.278 0 0 0-.646-1.117l-10.759-6.191a1.21 1.21 0 0 0-.582-.15h-.129ZM81.545.811a.655.655 0 0 0-.324.086.65.65 0 0 0-.323.559V17.9a.434.434 0 0 1-.215.387.45.45 0 0 1-.453 0l-2.695-1.548c-.4-.23-.894-.23-1.294 0l-10.758 6.19a1.32 1.32 0 0 0-.647 1.14v12.382c0 .462.245.886.647 1.117L76.24 43.76c.4.232.894.232 1.294 0l10.758-6.19c.401-.23.648-.657.647-1.118V5.584a1.31 1.31 0 0 0-.668-1.14L81.868.877a.63.63 0 0 0-.323-.064Z" fill="#404137"/><path d="M108.991 27.402c-.043 0-.091 0-.129.021l-2.07 1.204a.248.248 0 0 0-.129.215v2.365c0 .089.051.17.129.215l2.07 1.182c.077.045.16.045.237 0l2.069-1.182a.252.252 0 0 0 .13-.215v-2.365a.252.252 0 0 0-.13-.215l-2.069-1.204c-.039-.022-.065-.02-.108-.02v-.001ZM44.656 16.353c-.225 0-.446.057-.647.172l-10.758 6.17a1.32 1.32 0 0 0-.648 1.139v12.381c0 .463.245.886.648 1.118l10.758 6.19c.4.232.894.232 1.294 0l10.758-6.19c.4-.23.648-.657.647-1.118V23.834c0-.463-.245-.909-.647-1.14l-10.758-6.169a1.29 1.29 0 0 0-.647-.172Z" fill="#83CD29"/></svg>