<svg width="96" height="65" fill="none" xmlns="http://www.w3.org/2000/svg"><path d="M.582 43.654h4.28l9.068 14.83v-14.83h3.95v21.013h-4.25L4.532 49.868v14.8H.582V43.653ZM35.537 64.667h-3.681V62.32c-.838 1.652-2.544 2.582-4.698 2.582-3.412 0-5.627-2.462-5.627-6.004v-9.361h3.68v8.586c0 2.071 1.258 3.512 3.143 3.512 2.066 0 3.502-1.621 3.502-3.842v-8.256h3.681v15.13ZM48.346 64.428l-3.532-5.043-3.532 5.043h-3.92l5.447-7.895-5.028-7.235h4.01l3.023 4.354 2.992-4.354h4.041l-5.059 7.235 5.448 7.895h-3.89ZM59.718 44.974v4.562h4.19v3.093h-4.19v7.51a.952.952 0 0 0 .948.953h3.243v3.57h-2.425c-3.293 0-5.447-1.923-5.447-5.282v-6.748h-2.962v-3.096h1.858c.867 0 1.372-.517 1.372-1.374v-3.188h3.413ZM73.187 59.908V43.654h3.949v15.009c0 4.053-1.945 6.004-5.237 6.004h-4.597v-3.569h4.7a1.185 1.185 0 0 0 1.185-1.19ZM79.502 57.612h3.803c.21 2.347 1.767 3.842 4.28 3.842 2.245 0 3.803-.9 3.803-2.76 0-4.504-11.261-1.383-11.261-9.428.003-3.451 2.966-5.85 7.223-5.85 4.43 0 7.422 2.551 7.605 6.484h-3.782c-.178-1.83-1.609-3.061-3.83-3.061-2.066 0-3.352.96-3.352 2.43 0 4.654 11.407 1.174 11.407 9.367 0 3.902-3.203 6.274-7.811 6.274-4.759 0-7.871-2.882-8.08-7.295" fill="#012A35"/><path fill-rule="evenodd" clip-rule="evenodd" d="M45.08 1.565a3.06 3.06 0 0 0-5.341 0L26.806 24.31c-1.187 2.087.296 4.696 2.67 4.696h10.096a3.072 3.072 0 0 1-.622-3.82l9.795-17.173-3.666-6.447Z" fill="#80EEC0"/><path d="M53.274 6.554c.982-1.707 3.437-1.707 4.42 0l10.703 18.61c.982 1.707-.246 3.84-2.21 3.84H44.78c-1.964 0-3.192-2.133-2.21-3.84l10.704-18.61Z" fill="#00DC82"/></svg>